<mxfile host="65bd71144e">
    <diagram id="C5RBs43oDa-KdzZeNtuy" name="Page-1">
        <mxGraphModel dx="1348" dy="891" grid="1" gridSize="10" guides="1" tooltips="1" connect="1" arrows="1" fold="1" page="1" pageScale="1" pageWidth="1169" pageHeight="827" math="0" shadow="0">
            <root>
                <mxCell id="WIyWlLk6GJQsqaUBKTNV-0"/>
                <mxCell id="WIyWlLk6GJQsqaUBKTNV-1" parent="WIyWlLk6GJQsqaUBKTNV-0"/>
                <mxCell id="27" value="UnityEngine.InputSystem" style="swimlane;fontSize=25;fillColor=default;swimlaneLine=1;startSize=50;collapsible=0;expand=1;" vertex="1" parent="WIyWlLk6GJQsqaUBKTNV-1">
                    <mxGeometry x="20" y="20" width="430" height="610" as="geometry">
                        <mxRectangle x="10" y="10" width="100" height="40" as="alternateBounds"/>
                    </mxGeometry>
                </mxCell>
                <mxCell id="WIyWlLk6GJQsqaUBKTNV-6" value="Is event&lt;br&gt;device paired to a&lt;br&gt;player?" style="rhombus;whiteSpace=wrap;html=1;shadow=0;fontFamily=Helvetica;fontSize=12;align=center;strokeWidth=1;spacing=6;spacingTop=-4;direction=south;" parent="27" vertex="1">
                    <mxGeometry x="180" y="130" width="130" height="80" as="geometry"/>
                </mxCell>
                <mxCell id="WIyWlLk6GJQsqaUBKTNV-10" value="Is event&lt;br&gt;control mapped to game action?" style="rhombus;whiteSpace=wrap;html=1;shadow=0;fontFamily=Helvetica;fontSize=12;align=center;strokeWidth=1;spacing=6;spacingTop=-4;" parent="27" vertex="1">
                    <mxGeometry x="180" y="250" width="130" height="100" as="geometry"/>
                </mxCell>
                <mxCell id="oAJkpX2zpJuaC-JvoVgv-5" style="edgeStyle=orthogonalEdgeStyle;rounded=0;orthogonalLoop=1;jettySize=auto;html=1;entryX=0.5;entryY=0;entryDx=0;entryDy=0;" parent="27" source="WIyWlLk6GJQsqaUBKTNV-6" target="WIyWlLk6GJQsqaUBKTNV-10" edge="1">
                    <mxGeometry relative="1" as="geometry"/>
                </mxCell>
                <mxCell id="oAJkpX2zpJuaC-JvoVgv-6" value="Yes" style="edgeLabel;html=1;align=center;verticalAlign=middle;resizable=0;points=[];" parent="oAJkpX2zpJuaC-JvoVgv-5" vertex="1" connectable="0">
                    <mxGeometry x="-0.2556" y="-1" relative="1" as="geometry">
                        <mxPoint as="offset"/>
                    </mxGeometry>
                </mxCell>
                <mxCell id="WIyWlLk6GJQsqaUBKTNV-12" value="Fire game&lt;br&gt;input event" style="rounded=1;whiteSpace=wrap;html=1;fontSize=12;glass=0;strokeWidth=1;shadow=0;" parent="27" vertex="1">
                    <mxGeometry x="210" y="550" width="70" height="40" as="geometry"/>
                </mxCell>
                <mxCell id="oAJkpX2zpJuaC-JvoVgv-9" style="edgeStyle=orthogonalEdgeStyle;rounded=0;orthogonalLoop=1;jettySize=auto;html=1;entryX=0.5;entryY=0;entryDx=0;entryDy=0;startArrow=none;" parent="27" source="9" target="WIyWlLk6GJQsqaUBKTNV-12" edge="1">
                    <mxGeometry relative="1" as="geometry"/>
                </mxCell>
                <mxCell id="17" value="Yes" style="edgeLabel;html=1;align=center;verticalAlign=middle;resizable=0;points=[];fontSize=12;" vertex="1" connectable="0" parent="oAJkpX2zpJuaC-JvoVgv-9">
                    <mxGeometry relative="1" as="geometry">
                        <mxPoint y="-5" as="offset"/>
                    </mxGeometry>
                </mxCell>
                <mxCell id="WIyWlLk6GJQsqaUBKTNV-7" value="Discard the&lt;br&gt;input" style="rounded=1;whiteSpace=wrap;html=1;fontSize=12;glass=0;strokeWidth=1;shadow=0;" parent="27" vertex="1">
                    <mxGeometry x="325" y="370" width="70" height="40" as="geometry"/>
                </mxCell>
                <mxCell id="oAJkpX2zpJuaC-JvoVgv-1" style="edgeStyle=orthogonalEdgeStyle;rounded=0;orthogonalLoop=1;jettySize=auto;html=1;" parent="27" source="WIyWlLk6GJQsqaUBKTNV-6" target="WIyWlLk6GJQsqaUBKTNV-7" edge="1">
                    <mxGeometry relative="1" as="geometry"/>
                </mxCell>
                <mxCell id="oAJkpX2zpJuaC-JvoVgv-7" value="No" style="edgeLabel;html=1;align=center;verticalAlign=middle;resizable=0;points=[];" parent="oAJkpX2zpJuaC-JvoVgv-1" vertex="1" connectable="0">
                    <mxGeometry relative="1" as="geometry">
                        <mxPoint x="-30" y="-75" as="offset"/>
                    </mxGeometry>
                </mxCell>
                <mxCell id="oAJkpX2zpJuaC-JvoVgv-0" style="edgeStyle=orthogonalEdgeStyle;rounded=0;orthogonalLoop=1;jettySize=auto;html=1;entryX=0.5;entryY=0;entryDx=0;entryDy=0;" parent="27" source="WIyWlLk6GJQsqaUBKTNV-10" target="WIyWlLk6GJQsqaUBKTNV-7" edge="1">
                    <mxGeometry relative="1" as="geometry"/>
                </mxCell>
                <mxCell id="oAJkpX2zpJuaC-JvoVgv-8" value="No" style="edgeLabel;html=1;align=center;verticalAlign=middle;resizable=0;points=[];labelPosition=center;verticalLabelPosition=middle;" parent="oAJkpX2zpJuaC-JvoVgv-0" vertex="1" connectable="0">
                    <mxGeometry relative="1" as="geometry">
                        <mxPoint x="-30" y="-10" as="offset"/>
                    </mxGeometry>
                </mxCell>
                <mxCell id="5" value="Store input system timestamp for the start of the input update" style="rounded=1;whiteSpace=wrap;html=1;fontSize=12;fillColor=default;" vertex="1" parent="27">
                    <mxGeometry x="10" y="130" width="120" height="70" as="geometry"/>
                </mxCell>
                <mxCell id="7" value="" style="edgeStyle=orthogonalEdgeStyle;rounded=0;orthogonalLoop=1;jettySize=auto;html=1;entryX=0.5;entryY=0;entryDx=0;entryDy=0;endArrow=none;" edge="1" parent="27" source="WIyWlLk6GJQsqaUBKTNV-10" target="9">
                    <mxGeometry relative="1" as="geometry">
                        <mxPoint x="255" y="411.2500000000001" as="sourcePoint"/>
                        <mxPoint x="255" y="700" as="targetPoint"/>
                    </mxGeometry>
                </mxCell>
                <mxCell id="8" value="Yes" style="edgeLabel;html=1;align=center;verticalAlign=middle;resizable=0;points=[];" vertex="1" connectable="0" parent="7">
                    <mxGeometry x="-0.1534" y="1" relative="1" as="geometry">
                        <mxPoint as="offset"/>
                    </mxGeometry>
                </mxCell>
                <mxCell id="9" value="Did event&lt;br&gt;occur before input&lt;br&gt;update started?" style="rhombus;whiteSpace=wrap;html=1;fontSize=12;fillColor=default;" vertex="1" parent="27">
                    <mxGeometry x="180" y="390" width="130" height="110" as="geometry"/>
                </mxCell>
                <mxCell id="12" style="rounded=0;html=1;entryX=0;entryY=0;entryDx=0;entryDy=0;fontSize=12;exitX=1;exitY=0.5;exitDx=0;exitDy=0;elbow=vertical;dashed=1;endArrow=block;endFill=0;" edge="1" parent="27" source="5" target="9">
                    <mxGeometry relative="1" as="geometry">
                        <Array as="points">
                            <mxPoint x="170" y="165"/>
                            <mxPoint x="170" y="390"/>
                        </Array>
                    </mxGeometry>
                </mxCell>
                <mxCell id="14" value="Queue input&lt;br&gt;for next update" style="rounded=1;whiteSpace=wrap;html=1;fontSize=12;fillColor=default;" vertex="1" parent="27">
                    <mxGeometry x="315" y="500" width="90" height="40" as="geometry"/>
                </mxCell>
                <mxCell id="15" style="edgeStyle=orthogonalEdgeStyle;rounded=0;html=1;entryX=0.5;entryY=0;entryDx=0;entryDy=0;fontSize=12;" edge="1" parent="27" source="9" target="14">
                    <mxGeometry relative="1" as="geometry"/>
                </mxCell>
                <mxCell id="16" value="No" style="edgeLabel;html=1;align=center;verticalAlign=middle;resizable=0;points=[];fontSize=12;" vertex="1" connectable="0" parent="15">
                    <mxGeometry relative="1" as="geometry">
                        <mxPoint x="-30" y="-2" as="offset"/>
                    </mxGeometry>
                </mxCell>
                <mxCell id="20" style="rounded=0;html=1;entryX=1;entryY=1;entryDx=0;entryDy=0;fontSize=12;endArrow=block;endFill=0;elbow=vertical;dashed=1;exitX=1;exitY=0.5;exitDx=0;exitDy=0;" edge="1" parent="27" source="18" target="WIyWlLk6GJQsqaUBKTNV-6">
                    <mxGeometry relative="1" as="geometry">
                        <Array as="points">
                            <mxPoint x="200" y="255"/>
                            <mxPoint x="200" y="210"/>
                        </Array>
                    </mxGeometry>
                </mxCell>
                <mxCell id="18" value="Process queued&lt;br&gt;input events from the previous update" style="rounded=1;whiteSpace=wrap;html=1;fontSize=12;fillColor=default;" vertex="1" parent="27">
                    <mxGeometry x="10" y="230" width="120" height="50" as="geometry"/>
                </mxCell>
                <mxCell id="19" style="edgeStyle=orthogonalEdgeStyle;rounded=0;html=1;entryX=0.5;entryY=0;entryDx=0;entryDy=0;fontSize=12;endArrow=classic;endFill=1;elbow=vertical;" edge="1" parent="27" source="5" target="18">
                    <mxGeometry relative="1" as="geometry"/>
                </mxCell>
                <mxCell id="26" style="edgeStyle=orthogonalEdgeStyle;rounded=0;html=1;entryX=1;entryY=0.75;entryDx=0;entryDy=0;fontSize=12;endArrow=block;endFill=0;elbow=vertical;dashed=1;" edge="1" parent="27" source="14" target="18">
                    <mxGeometry relative="1" as="geometry">
                        <Array as="points">
                            <mxPoint x="150" y="520"/>
                            <mxPoint x="150" y="268"/>
                        </Array>
                    </mxGeometry>
                </mxCell>
                <mxCell id="23" style="edgeStyle=orthogonalEdgeStyle;rounded=0;html=1;entryX=0.5;entryY=0;entryDx=0;entryDy=0;fontSize=12;endArrow=classic;endFill=1;elbow=vertical;" edge="1" parent="27" source="22" target="5">
                    <mxGeometry relative="1" as="geometry"/>
                </mxCell>
                <mxCell id="22" value="onBeforeUpdate" style="shape=hexagon;perimeter=hexagonPerimeter2;whiteSpace=wrap;html=1;fixedSize=1;fontSize=12;fillColor=default;" vertex="1" parent="27">
                    <mxGeometry x="10" y="60" width="120" height="40" as="geometry"/>
                </mxCell>
                <mxCell id="25" style="edgeStyle=orthogonalEdgeStyle;rounded=0;html=1;fontSize=12;endArrow=classic;endFill=1;elbow=vertical;" edge="1" parent="27" source="24" target="WIyWlLk6GJQsqaUBKTNV-6">
                    <mxGeometry relative="1" as="geometry"/>
                </mxCell>
                <mxCell id="24" value="onEvent" style="shape=hexagon;perimeter=hexagonPerimeter2;whiteSpace=wrap;html=1;fixedSize=1;fontSize=12;fillColor=default;" vertex="1" parent="27">
                    <mxGeometry x="205" y="60" width="80" height="40" as="geometry"/>
                </mxCell>
                <mxCell id="29" value="YARG.Core Engine" style="swimlane;fontSize=25;fillColor=default;swimlaneLine=1;startSize=50;collapsible=0;expand=1;" vertex="1" parent="WIyWlLk6GJQsqaUBKTNV-1">
                    <mxGeometry x="470" y="20" width="250" height="200" as="geometry">
                        <mxRectangle x="10" y="10" width="100" height="40" as="alternateBounds"/>
                    </mxGeometry>
                </mxCell>
                <mxCell id="oAJkpX2zpJuaC-JvoVgv-26" value="???" style="rhombus;whiteSpace=wrap;html=1;shadow=0;fontFamily=Helvetica;fontSize=12;align=center;strokeWidth=1;spacing=6;spacingTop=-4;direction=south;" parent="29" vertex="1">
                    <mxGeometry x="90" y="140" width="60" height="50" as="geometry"/>
                </mxCell>
                <mxCell id="59" style="edgeStyle=orthogonalEdgeStyle;rounded=0;html=1;entryX=0;entryY=0.5;entryDx=0;entryDy=0;dashed=1;fontSize=25;endArrow=block;endFill=0;startSize=50;elbow=vertical;" edge="1" parent="29" source="58" target="oAJkpX2zpJuaC-JvoVgv-26">
                    <mxGeometry relative="1" as="geometry"/>
                </mxCell>
                <mxCell id="58" value="Game input&lt;br&gt;event" style="shape=hexagon;perimeter=hexagonPerimeter2;whiteSpace=wrap;html=1;fixedSize=1;fontSize=12;fillColor=default;" vertex="1" parent="29">
                    <mxGeometry x="70" y="60" width="100" height="50" as="geometry"/>
                </mxCell>
            </root>
        </mxGraphModel>
    </diagram>
</mxfile>